<svg xmlns="http://www.w3.org/2000/svg" viewBox="0 0 105.00 105.00" data-guides="{&quot;vertical&quot;:[],&quot;horizontal&quot;:[]}"><defs/><path fill="#181B4F" stroke="none" fill-opacity="1" stroke-width="1" stroke-opacity="1" id="tSvg21fd81388b" title="Path 147" d="M60.5887 20.6422C70.7139 20.5792 68.0341 30.4504 68.0091 38.1107C71.3038 38.0117 81.111 37.0158 83.0888 39.0926C86.2035 42.3613 85.8346 51.1956 79.6181 51.4605C63.5395 51.3665 53.7353 50.2586 54.3453 30.7693C54.5343 24.7059 53.3594 21.8321 60.5887 20.6422Z"/><path fill="#181B4F" stroke="none" fill-opacity="1" stroke-width="1" stroke-opacity="1" id="tSvg4b523e19bd" title="Path 150" d="M24.3629 54.5233C28.8645 54.0793 34.171 54.4043 38.7506 54.6553C51.0736 55.3302 52.7864 71.2478 51.3256 80.692C51.0046 82.7718 49.9757 83.3778 48.2948 84.4277C47.2119 84.5127 46.126 84.5757 45.0401 84.6177C36.1309 84.9116 38.4547 74.2696 38.5617 68.1051C34.744 67.8881 30.9433 68.0901 27.1106 67.8801C19.7943 67.4811 18.7444 58.2759 24.3629 54.5233Z"/><path fill="#181B4F" stroke="none" fill-opacity="1" stroke-width="1" stroke-opacity="1" id="tSvg19b1fb7f966" title="Path 171" d="M51.1186 35.03C51.3815 35.102 51.5635 35.3449 51.7735 35.5179C50.2896 45.765 46.24 49.2177 35.9409 50.8076C35.6749 50.6236 35.4089 50.4396 35.143 50.2556C37.1558 45.4571 37.5137 41.8074 37.5157 36.6898C42.5463 36.6738 46.63 37.1768 51.1186 35.03Z"/><path fill="#181B4F" stroke="none" fill-opacity="1" stroke-width="1" stroke-opacity="1" id="tSvgb82b86f8da" title="Path 172" d="M68.919 54.5303C70.0819 54.5093 70.1759 54.5513 71.3238 54.7972C68.3171 60.9307 68.5111 62.5046 68.5011 69.451C65.0114 69.018 62.3396 68.773 58.8939 69.509C57.604 69.9909 57.464 70.1779 56.1231 70.1059C55.8915 69.725 55.6598 69.344 55.4282 68.963C55.1452 61.5867 62.4246 56.2381 68.919 54.5303Z"/><path fill="#089AEA" stroke="none" fill-opacity="1" stroke-width="1" stroke-opacity="1" id="tSvg5db885bc7f" title="Path 175" d="M75.9467 56.0773C78.2125 55.2154 80.7683 55.6483 82.6231 57.2102C84.4789 58.771 85.3429 61.2148 84.8809 63.5946C84.4189 65.9754 82.7041 67.9182 80.3993 68.6722C76.9516 69.8011 73.2319 67.9702 72.023 64.5495C70.8131 61.1288 72.555 57.3672 75.9467 56.0773Z"/><path fill="#089AEA" stroke="none" fill-opacity="1" stroke-width="1" stroke-opacity="1" id="tSvg1598a497583" title="Path 177" d="M59.1198 72.4423C61.2366 71.4594 63.7214 71.7103 65.5992 73.0952C67.477 74.4801 68.4499 76.7799 68.137 79.0927C67.824 81.4045 66.2741 83.3623 64.0953 84.1983C60.8816 85.4312 57.2689 83.8953 55.927 80.7246C54.5851 77.5538 55.997 73.8912 59.1198 72.4423Z"/><path fill="#089AEA" stroke="none" fill-opacity="1" stroke-width="1" stroke-opacity="1" id="tSvg1a954f366f" title="Path 179" d="M24.4811 35.6235C26.5979 34.6406 29.0827 34.8915 30.9605 36.2764C32.8383 37.6613 33.8113 39.9611 33.4983 42.2739C33.1853 44.5857 31.6354 46.5435 29.4566 47.3795C26.2429 48.6124 22.6302 47.0765 21.2883 43.9058C19.9465 40.735 21.3583 37.0724 24.4811 35.6235Z"/><path fill="#089AEA" stroke="none" fill-opacity="1" stroke-width="1" stroke-opacity="1" id="tSvg5823e104f4" title="Path 180" d="M40.7707 21.2353C42.8875 20.2524 45.3723 20.5033 47.2501 21.8882C49.1279 23.2731 50.1009 25.5729 49.7879 27.8857C49.4749 30.1975 47.925 32.1553 45.7462 32.9913C42.5325 34.2242 38.9198 32.6883 37.5779 29.5176C36.2361 26.3468 37.6479 22.6842 40.7707 21.2353Z"/></svg>